<svg width="24" height="24" viewBox="0 0 24 24">
                                        <path
                                            d="M11.0461 4C7.16097 4 4 7.16097 4 11.0461C4 14.9314 7.16097 18.0921 11.0461 18.0921C14.9314 18.0921 18.0921 14.9314 18.0921 11.0461C18.0921 7.16097 14.9314 4 11.0461 4ZM11.0461 16.7913C7.87816 16.7913 5.30081 14.214 5.30081 11.0461C5.30081 7.87819 7.87816 5.30081 11.0461 5.30081C14.214 5.30081 16.7913 7.87816 16.7913 11.0461C16.7913 14.214 14.214 16.7913 11.0461 16.7913Z" />
                                        <path
                                            d="M19.8095 18.8897L16.0805 15.1607C15.8264 14.9066 15.4149 14.9066 15.1608 15.1607C14.9067 15.4146 14.9067 15.8265 15.1608 16.0804L18.8898 19.8094C18.9501 19.8699 19.0218 19.9179 19.1007 19.9506C19.1796 19.9833 19.2642 20.0001 19.3496 20C19.435 20.0001 19.5196 19.9833 19.5986 19.9506C19.6775 19.9179 19.7491 19.8699 19.8095 19.8094C20.0636 19.5555 20.0636 19.1436 19.8095 18.8897Z" />
                                    </svg>